<?xml version="1.0" encoding="UTF-8"?>
<svg version="1.1" xmlns="http://www.w3.org/2000/svg" width="500" height="500">
<path d="M0 0 C0.82985413 -0.00979385 1.65970825 -0.01958771 2.51470947 -0.02967834 C21.02989094 -0.20315427 38.91660432 -0.0667729 57.03125 4.23828125 C58.38887451 4.55974121 58.38887451 4.55974121 59.77392578 4.88769531 C93.64086192 13.21056604 123.96180387 29.6027272 149.65234375 53.08203125 C151.80635509 55.03443561 154.00152726 56.92105484 156.21875 58.80078125 C160.2270501 62.30504361 163.61754399 66.16294974 167.03125 70.23828125 C167.76988281 71.07746094 168.50851562 71.91664062 169.26953125 72.78125 C200.05419861 108.37755596 216.05104588 153.53444267 218.03125 200.23828125 C218.07378906 201.18574219 218.11632812 202.13320312 218.16015625 203.109375 C219.12318987 247.34471946 204.24888196 289.52343815 179.88916016 325.96313477 C179.35279938 326.76598404 178.8164386 327.56883331 178.26382446 328.39601135 C177.85707489 329.00396042 177.45032532 329.61190948 177.03125 330.23828125 C177.71727798 330.92208862 178.40330597 331.605896 179.11012268 332.3104248 C185.60041934 338.78037882 192.0880199 345.25302566 198.57304478 351.72826385 C201.90649325 355.05651164 205.24085794 358.38383023 208.57739258 361.70898438 C211.80212642 364.92278878 215.02435389 368.13908714 218.24491692 371.35707092 C219.46911089 372.57942867 220.69417914 373.80091152 221.92016792 375.02146912 C232.73838652 385.79369941 232.73838652 385.79369941 236.45800781 390.17602539 C241.32768902 395.88089801 246.78816211 401.03587044 252.13124657 406.29118156 C254.87871653 408.99614256 257.61650418 411.71081829 260.35497761 414.42488194 C265.43687867 419.46127016 270.52258658 424.49365938 275.62475586 429.50952148 C279.19044142 433.01563012 282.74363154 436.53398915 286.28902626 440.06060982 C287.63483037 441.39472452 288.98514254 442.72430855 290.34013939 444.04908562 C292.23754858 445.90520917 294.11857492 447.77661852 295.99682617 449.65209961 C296.82837723 450.45432953 296.82837723 450.45432953 297.67672729 451.27276611 C302.60102389 456.24875859 306.00264396 462.25736492 306.5625 469.3359375 C306.48963271 478.58097433 305.82090919 484.71174388 299.78125 491.92578125 C290.62846013 499.62244546 282.82058965 501.04127033 271.03125 500.23828125 C256.49774383 497.36254944 242.83264357 478.16048583 232.89496613 468.17716217 C230.05462151 465.32390382 227.21110631 462.47384057 224.36663818 459.62469482 C218.33516658 453.58222175 212.30798405 447.53547898 206.28125 441.48828125 C199.75691667 434.94183164 193.23179674 428.3961764 186.70178103 421.85539412 C183.42978844 418.57767005 180.16172509 415.29605938 176.89434814 412.01373291 C175.17483153 410.29058219 173.45517346 408.56757259 171.73535156 406.84472656 C170.96945206 406.07366074 170.20355255 405.30259491 169.41444397 404.50816345 C165.31786441 400.41118593 161.13424244 396.48519839 156.73426437 392.71489239 C154.41899656 390.7074224 152.25253108 388.57221011 150.09375 386.3984375 C149.26230469 385.56376953 148.43085938 384.72910156 147.57421875 383.86914062 C146.73503906 383.02158203 145.89585937 382.17402344 145.03125 381.30078125 C144.16113281 380.42615234 143.29101562 379.55152344 142.39453125 378.65039062 C140.27111451 376.51530676 138.15008622 374.3779092 136.03125 372.23828125 C132.46700339 373.61007992 129.65953874 375.07855134 126.59375 377.36328125 C84.34071013 407.43750375 29.73495764 418.00169573 -21.1328125 410.2734375 C-44.63936269 406.29242572 -67.07286824 398.73265126 -87.96875 387.23828125 C-88.58911133 386.89716309 -89.20947266 386.55604492 -89.84863281 386.20458984 C-104.30850251 378.1324785 -117.54674603 368.23167617 -129.44287109 356.71289062 C-130.49932522 355.69193336 -131.56264417 354.6780498 -132.63134766 353.66992188 C-146.82219287 340.27523629 -158.17379529 325.08474603 -167.96875 308.23828125 C-168.32275879 307.63338867 -168.67676758 307.02849609 -169.04150391 306.40527344 C-184.38117353 279.87217994 -193.90481519 247.99703785 -194.20703125 217.26953125 C-194.21687042 216.43981308 -194.22670959 215.61009491 -194.23684692 214.75523376 C-194.80535519 154.34858887 -175.42972679 103.29849358 -133.96875 59.23828125 C-133.35257813 58.57957031 -132.73640625 57.92085937 -132.1015625 57.2421875 C-118.82881831 43.49314866 -101.88572498 31.99856228 -84.96875 23.23828125 C-84.21142578 22.84398926 -83.45410156 22.44969727 -82.67382812 22.04345703 C-57.29020045 8.99546976 -28.71880261 0.28226665 0 0 Z M-91.96875 98.23828125 C-92.71769531 98.934375 -93.46664062 99.63046875 -94.23828125 100.34765625 C-119.96713182 125.04014332 -136.40148831 162.33534278 -137.171875 197.94921875 C-137.31520755 211.95381308 -137.26930997 225.55525113 -133.96875 239.23828125 C-133.80246094 239.96337891 -133.63617188 240.68847656 -133.46484375 241.43554688 C-124.37837079 280.30545898 -99.51498245 313.0158664 -65.87451172 334.06982422 C-42.09668659 348.64843952 -16.40249988 355.46638839 11.40625 355.48828125 C12.17202362 355.48895599 12.93779724 355.48963074 13.72677612 355.49032593 C24.79223153 355.47480269 35.28181519 355.10096496 46.03125 352.23828125 C46.70784668 352.0666748 47.38444336 351.89506836 48.08154297 351.71826172 C87.75932554 341.55588161 120.2165047 316.92898668 141.33984375 281.90234375 C161.80016353 246.96800466 166.7495273 205.52949032 156.8515625 166.47265625 C150.19182882 141.73789758 137.86510246 120.49052322 120.03125 102.23828125 C119.25523437 101.40039062 118.47921875 100.5625 117.6796875 99.69921875 C102.18988374 83.38052917 82.18951209 71.59193321 61.03125 64.23828125 C60.06034424 63.90038574 60.06034424 63.90038574 59.06982422 63.55566406 C5.97614099 45.48396125 -51.68578954 60.15257318 -91.96875 98.23828125 Z " fill="#002C52" transform="translate(193.96875,-0.23828125)"/>
</svg>
